<?xml version="1.0" encoding="utf-8"?>
<!-- Generator: Adobe Illustrator 25.2.3, SVG Export Plug-In . SVG Version: 6.00 Build 0)  -->
<svg version="1.1" id="Camada_1" xmlns="http://www.w3.org/2000/svg" xmlns:xlink="http://www.w3.org/1999/xlink" x="0px" y="0px"
	 viewBox="0 0 1080 484.43" style="enable-background:new 0 0 1080 484.43;" xml:space="preserve">
<style type="text/css">
	.st0{fill:#4B3716;}
	.st1{fill:#EDB83C;}
</style>
<g>
	<path class="st0" d="M141.95,95.36h5.36v32.87h20.33v4.67h-25.69V95.36z"/>
	<path class="st0" d="M189.22,98.05c-0.66-0.65-0.99-1.43-0.99-2.36c0-0.93,0.33-1.73,0.99-2.39c0.66-0.66,1.49-0.99,2.49-0.99
		c1,0,1.83,0.31,2.5,0.93c0.66,0.63,0.99,1.41,0.99,2.33c0,0.97-0.33,1.78-0.99,2.44c-0.67,0.66-1.49,1-2.5,1
		C190.71,99.01,189.88,98.69,189.22,98.05z M189.14,104.49h5.15v28.42h-5.15V104.49z"/>
	<path class="st0" d="M245.34,104.49l-12.44,28.42h-5.26l-12.44-28.42h5.36l9.76,22.79l9.98-22.79H245.34z"/>
	<path class="st0" d="M275.16,105.5c1.75-0.86,3.88-1.29,6.38-1.29v4.99c-0.29-0.03-0.68-0.05-1.18-0.05
		c-2.79,0-4.98,0.84-6.57,2.49c-1.59,1.66-2.39,4.04-2.39,7.11v14.16h-5.15v-28.42h4.93v4.77
		C272.08,107.61,273.41,106.36,275.16,105.5z"/>
	<path class="st0" d="M323.29,107.11c2.09,1.93,3.14,4.81,3.14,8.63v17.16h-4.88v-3.75c-0.86,1.32-2.08,2.33-3.68,3.03
		c-1.59,0.69-3.48,1.04-5.66,1.04c-3.18,0-5.73-0.77-7.64-2.3c-1.92-1.54-2.87-3.56-2.87-6.06c0-2.51,0.91-4.52,2.73-6.04
		c1.82-1.52,4.72-2.28,8.69-2.28h8.15v-1.02c0-2.22-0.64-3.91-1.93-5.09c-1.28-1.19-3.18-1.77-5.69-1.77
		c-1.68,0-3.33,0.27-4.93,0.83c-1.61,0.55-2.97,1.3-4.07,2.23l-2.15-3.86c1.47-1.18,3.22-2.08,5.26-2.71
		c2.04-0.63,4.2-0.94,6.49-0.94C318.19,104.21,321.2,105.18,323.29,107.11z M318.17,127.94c1.43-0.87,2.47-2.11,3.11-3.72v-3.97
		h-7.94c-4.36,0-6.54,1.47-6.54,4.39c0,1.44,0.55,2.56,1.66,3.38c1.11,0.82,2.65,1.23,4.61,1.23
		C315.04,129.26,316.74,128.82,318.17,127.94z"/>
	<path class="st0" d="M360.97,105.5c1.75-0.86,3.88-1.29,6.38-1.29v4.99c-0.29-0.03-0.68-0.05-1.18-0.05
		c-2.79,0-4.98,0.84-6.57,2.49c-1.59,1.66-2.39,4.04-2.39,7.11v14.16h-5.15v-28.42H357v4.77
		C357.89,107.61,359.22,106.36,360.97,105.5z"/>
	<path class="st0" d="M389.85,98.05c-0.66-0.65-0.99-1.43-0.99-2.36c0-0.93,0.33-1.73,0.99-2.39c0.66-0.66,1.49-0.99,2.49-0.99
		c1,0,1.83,0.31,2.5,0.93c0.66,0.63,0.99,1.41,0.99,2.33c0,0.97-0.33,1.78-0.99,2.44c-0.67,0.66-1.49,1-2.5,1
		C391.34,99.01,390.51,98.69,389.85,98.05z M389.77,104.49h5.15v28.42h-5.15V104.49z"/>
	<path class="st0" d="M440.21,107.11c2.09,1.93,3.14,4.81,3.14,8.63v17.16h-4.88v-3.75c-0.86,1.32-2.08,2.33-3.68,3.03
		c-1.59,0.69-3.48,1.04-5.66,1.04c-3.18,0-5.73-0.77-7.64-2.3c-1.92-1.54-2.87-3.56-2.87-6.06c0-2.51,0.91-4.52,2.73-6.04
		c1.82-1.52,4.72-2.28,8.69-2.28h8.15v-1.02c0-2.22-0.64-3.91-1.93-5.09c-1.28-1.19-3.18-1.77-5.69-1.77
		c-1.68,0-3.33,0.27-4.93,0.83c-1.61,0.55-2.97,1.3-4.07,2.23l-2.15-3.86c1.47-1.18,3.22-2.08,5.26-2.71
		c2.04-0.63,4.2-0.94,6.49-0.94C435.11,104.21,438.12,105.18,440.21,107.11z M435.09,127.94c1.43-0.87,2.47-2.11,3.11-3.72v-3.97
		h-7.94c-4.36,0-6.54,1.47-6.54,4.39c0,1.44,0.55,2.56,1.66,3.38c1.11,0.82,2.65,1.23,4.61,1.23
		C431.96,129.26,433.66,128.82,435.09,127.94z"/>
</g>
<path class="st0" d="M315.18,249.44l-0.16-67.04l-32.88,55.23h-11.66l-32.72-53.79v65.61H213.5V137.69h21.39l41.82,69.43
	l41.19-69.43h21.23l0.32,111.74H315.18z"/>
<g>
	<path class="st0" d="M429.92,200.89l-62.84,16.49c2.48,4.85,6.23,8.22,11.23,10.09c5,1.88,10.65,2,16.93,0.35
		c4.32-1.13,7.98-2.79,10.99-4.95c3.01-2.17,5.59-5.02,7.74-8.56l16.46,10.54c-5.47,11.01-15.72,18.49-30.75,22.43
		c-9.37,2.46-18.14,2.81-26.3,1.04c-8.16-1.76-15.05-5.37-20.67-10.83c-5.62-5.46-9.5-12.31-11.66-20.54
		c-2.13-8.13-2.13-15.97,0.01-23.52c2.14-7.55,6.11-14.03,11.89-19.46c5.78-5.42,12.84-9.23,21.18-11.42
		c8.13-2.13,15.95-2.32,23.45-0.54c7.51,1.77,14,5.43,19.47,10.98c5.47,5.55,9.34,12.65,11.61,21.3
		C428.76,194.59,429.17,196.8,429.92,200.89z M366.55,188.98c-2.9,4.05-4.06,8.88-3.47,14.44L404,192.68
		c-2.2-5.03-5.57-8.63-10.1-10.81c-4.53-2.16-9.47-2.54-14.82-1.14C373.62,182.17,369.45,184.91,366.55,188.98z"/>
</g>
<g>
	<path class="st0" d="M674.29,200.89l-62.84,16.49c2.48,4.85,6.23,8.22,11.23,10.09c5,1.88,10.65,2,16.93,0.35
		c4.32-1.13,7.98-2.79,10.99-4.95c3.01-2.17,5.59-5.02,7.74-8.56l16.46,10.54c-5.47,11.01-15.72,18.49-30.75,22.43
		c-9.37,2.46-18.14,2.81-26.3,1.04c-8.16-1.76-15.05-5.37-20.67-10.83c-5.62-5.46-9.5-12.31-11.66-20.54
		c-2.13-8.13-2.13-15.97,0.01-23.52c2.14-7.55,6.11-14.03,11.89-19.46c5.78-5.42,12.84-9.23,21.18-11.42
		c8.13-2.13,15.95-2.32,23.45-0.54c7.51,1.77,14,5.43,19.47,10.98c5.47,5.55,9.34,12.65,11.61,21.3
		C673.13,194.59,673.54,196.8,674.29,200.89z M610.93,188.98c-2.9,4.05-4.06,8.88-3.47,14.44l40.91-10.74
		c-2.2-5.03-5.57-8.63-10.1-10.81c-4.53-2.16-9.47-2.54-14.82-1.14C617.99,182.17,613.82,184.91,610.93,188.98z"/>
</g>
<g>
	<path class="st0" d="M508.4,171.71c6.54,6.39,9.81,15.86,9.81,28.41v49.17h-24.9v-45.34c0-6.81-1.49-11.9-4.47-15.25
		c-2.98-3.35-7.29-5.03-12.93-5.03c-6.28,0-11.28,1.94-15,5.83c-3.73,3.89-5.59,9.66-5.59,17.32v42.47h-24.9v-88.73h23.78v12.91
		c3.3-3.62,7.4-6.41,12.29-8.38c4.89-1.97,10.27-2.96,16.13-2.96C493.27,162.12,501.86,165.32,508.4,171.71z"/>
</g>
<g>
	<path class="st0" d="M583.83,243.72c-2.45,1.82-5.46,3.17-9.03,4.08s-7.32,1.36-11.25,1.36c-10.22,0-18.12-2.6-23.7-7.83
		c-5.59-5.21-8.38-12.87-8.38-22.99v-35.27h-13.25v-19.16h13.25v-20.92h24.9v20.92h21.39v19.16h-21.39v34.95
		c0,3.62,0.93,6.41,2.79,8.38c1.86,1.97,4.49,2.96,7.9,2.96c3.94,0,7.29-1.06,10.06-3.19L583.83,243.72z"/>
</g>
<g>
	<path class="st0" d="M687.44,246.79c-6.42-1.76-11.53-3.97-15.34-6.63l7.82-17.91c3.61,2.46,7.97,4.45,13.08,6
		c5.11,1.55,10.12,2.32,15.03,2.32c9.93,0,14.89-2.61,14.89-7.84c0-2.45-1.35-4.21-4.06-5.28c-2.71-1.07-6.87-1.97-12.48-2.72
		c-6.62-1.07-12.08-2.29-16.39-3.68c-4.31-1.38-8.04-3.84-11.2-7.36c-3.16-3.51-4.74-8.53-4.74-15.03c0-5.44,1.48-10.26,4.43-14.48
		c2.96-4.21,7.27-7.49,12.93-9.84c5.66-2.34,12.36-3.52,20.07-3.52c5.72,0,11.41,0.66,17.07,2c5.66,1.33,10.35,3.17,14.06,5.52
		l-7.82,17.75c-7.12-4.27-14.89-6.4-23.31-6.4c-5.01,0-8.77,0.75-11.28,2.23c-2.51,1.49-3.76,3.42-3.76,5.76
		c0,2.66,1.35,4.53,4.06,5.6c2.71,1.07,7.02,2.08,12.93,3.04c6.61,1.17,12.03,2.42,16.24,3.76c4.21,1.33,7.87,3.76,10.98,7.28
		s4.66,8.42,4.66,14.72c0,5.33-1.5,10.08-4.51,14.23c-3.01,4.16-7.39,7.38-13.16,9.68c-5.77,2.29-12.61,3.44-20.52,3.44
		C700.43,249.43,693.86,248.55,687.44,246.79z"/>
</g>
<g>
	<path class="st0" d="M324.24,336.92c4.13,5.4,6.19,12.05,6.19,19.94c0,11.17-4.34,19.77-13.02,25.78
		c-8.68,6.01-21.34,9.01-37.97,9.01H213.5V264.16h62.29c15.54,0,27.47,2.98,35.79,8.92c8.32,5.95,12.48,14.03,12.48,24.23
		c0,6.19-1.48,11.71-4.46,16.57c-2.97,4.86-7.13,8.69-12.48,11.48C314.4,327.66,320.1,331.52,324.24,336.92z M242.82,286.38v30.05
		h29.32c7.29,0,12.81-1.28,16.58-3.82c3.77-2.55,5.65-6.32,5.65-11.3c0-4.98-1.88-8.71-5.65-11.2c-3.77-2.49-9.29-3.73-16.58-3.73
		H242.82z M294.82,365.6c3.95-2.55,5.92-6.49,5.92-11.84c0-10.56-7.83-15.85-23.49-15.85h-34.42v31.51h34.42
		C285.01,369.43,290.87,368.16,294.82,365.6z"/>
</g>
<g>
	<path class="st0" d="M371.31,295.85c5.77-2.43,12.42-3.64,19.95-3.64v26.23c-3.16-0.25-5.28-0.37-6.38-0.37
		c-8.14,0-14.51,2.28-19.12,6.84c-4.62,4.55-6.93,11.38-6.93,20.49v46.26h-28.41v-99.44h27.14v14.38
		C360.97,301.86,365.55,298.28,371.31,295.85z"/>
</g>
<g>
	<path class="st0" d="M430.1,256.51h28.41v135.14H430.1V256.51z"/>
</g>
<g>
	<path class="st0" d="M552.41,303.14c7.47,7.29,11.2,18.09,11.2,32.42v56.1h-28.41v-51.73c0-7.77-1.69-13.56-5.1-17.39
		c-3.4-3.82-8.32-5.74-14.75-5.74c-7.16,0-12.87,2.22-17.12,6.65c-4.26,4.43-6.38,11.02-6.38,19.76v48.44h-28.41V256.51h28.41v47.35
		c3.76-3.77,8.32-6.65,13.66-8.65c5.34-2.01,11.17-3,17.48-3C535.13,292.21,544.94,295.85,552.41,303.14z"/>
</g>
<g>
	<path class="st0" d="M644.47,301.58c8.13,7.23,12.2,18.12,12.2,32.69v55.92h-26.59v-12.2c-5.35,9.11-15.3,13.66-29.87,13.66
		c-7.53,0-14.05-1.27-19.58-3.82c-5.53-2.55-9.74-6.07-12.66-10.57c-2.91-4.49-4.37-9.59-4.37-15.3c0-9.1,3.42-16.27,10.29-21.49
		c6.86-5.22,17.45-7.83,31.78-7.83h22.58c0-6.19-1.88-10.95-5.64-14.3c-3.77-3.33-9.41-5-16.94-5c-5.22,0-10.35,0.82-15.39,2.46
		c-5.04,1.64-9.32,3.86-12.84,6.65l-10.2-19.85c5.34-3.77,11.75-6.68,19.21-8.74c7.47-2.06,15.14-3.09,23.04-3.09
		C624.68,290.75,636.33,294.36,644.47,301.58z M620.24,369.16c3.77-2.24,6.43-5.55,8.01-9.92v-10.02h-19.48
		c-11.66,0-17.48,3.82-17.48,11.48c0,3.64,1.42,6.52,4.27,8.65c2.86,2.12,6.77,3.18,11.75,3.18
		C612.17,372.53,616.48,371.41,620.24,369.16z"/>
</g>
<g>
	<rect x="396.77" y="292.21" class="st0" width="28.41" height="97.98"/>
</g>
<g>
	<rect x="396.77" y="293.67" class="st0" width="28.41" height="97.98"/>
</g>
<g>
	<path class="st0" d="M931.22,337.31l-70.34,18.46c2.78,5.43,6.97,9.2,12.57,11.3c5.6,2.11,11.92,2.24,18.95,0.39
		c4.84-1.27,8.94-3.12,12.3-5.54c3.36-2.43,6.26-5.62,8.66-9.58l18.43,11.79c-6.12,12.33-17.6,20.69-34.42,25.11
		c-10.49,2.75-20.3,3.14-29.44,1.17c-9.14-1.97-16.85-6.02-23.13-12.12c-6.29-6.11-10.63-13.78-13.05-22.99
		c-2.39-9.1-2.38-17.88,0.01-26.33c2.4-8.45,6.84-15.71,13.31-21.78c6.47-6.07,14.38-10.33,23.71-12.78
		c9.1-2.39,17.85-2.59,26.25-0.6c8.41,1.99,15.67,6.08,21.8,12.29c6.12,6.21,10.46,14.16,13,23.84
		C929.92,330.27,930.38,332.74,931.22,337.31z M860.29,323.98c-3.24,4.54-4.54,9.93-3.89,16.16l45.8-12.02
		c-2.47-5.63-6.23-9.66-11.3-12.09c-5.07-2.42-10.6-2.85-16.59-1.28C868.2,316.36,863.53,319.43,860.29,323.98z"/>
</g>
<g>
	<path class="st0" d="M745.53,304.65c7.32,7.15,10.99,17.75,10.99,31.8v55.03h-27.87v-50.75c0-7.62-1.66-13.31-5-17.07
		c-3.33-3.75-8.16-5.63-14.47-5.63c-7.03,0-12.62,2.18-16.79,6.52c-4.18,4.35-6.26,10.81-6.26,19.39v47.53h-27.87v-99.32h26.62
		v14.45c3.69-4.05,8.28-7.18,13.76-9.38c5.48-2.2,11.5-3.31,18.05-3.31C728.59,293.92,738.21,297.5,745.53,304.65z"/>
</g>
<g>
	<path class="st0" d="M829.96,385.25c-2.75,2.03-6.11,3.55-10.1,4.56c-3.99,1.01-8.19,1.52-12.59,1.52
		c-11.44,0-20.29-2.92-26.53-8.76c-6.26-5.83-9.38-14.41-9.38-25.73v-39.48h-14.83v-21.44h14.83V272.5h27.87v23.42h23.94v21.44
		h-23.94v39.13c0,4.05,1.04,7.18,3.12,9.38c2.08,2.21,5.03,3.31,8.84,3.31c4.41,0,8.16-1.19,11.26-3.57L829.96,385.25z"/>
</g>
<g>
	<path class="st0" d="M947.27,388.69c-7.18-1.97-12.91-4.44-17.17-7.42l8.76-20.05c4.04,2.75,8.92,4.99,14.65,6.71
		c5.72,1.73,11.33,2.59,16.83,2.59c11.11,0,16.67-2.92,16.67-8.77c0-2.74-1.51-4.71-4.55-5.91c-3.03-1.19-7.69-2.21-13.97-3.04
		c-7.41-1.19-13.52-2.56-18.35-4.12c-4.83-1.55-9-4.3-12.53-8.24c-3.54-3.93-5.31-9.55-5.31-16.82c0-6.09,1.65-11.49,4.96-16.2
		c3.31-4.71,8.14-8.38,14.48-11.01c6.34-2.62,13.83-3.94,22.47-3.94c6.4,0,12.77,0.74,19.11,2.24c6.34,1.49,11.59,3.55,15.74,6.18
		l-8.75,19.87c-7.97-4.78-16.67-7.16-26.09-7.16c-5.61,0-9.82,0.84-12.62,2.5c-2.81,1.67-4.21,3.82-4.21,6.45
		c0,2.98,1.51,5.07,4.54,6.26c3.03,1.19,7.85,2.33,14.48,3.41c7.4,1.31,13.47,2.71,18.18,4.2c4.72,1.49,8.81,4.2,12.29,8.14
		s5.22,9.43,5.22,16.47c0,5.97-1.68,11.28-5.04,15.93c-3.37,4.65-8.28,8.26-14.73,10.83c-6.46,2.56-14.11,3.85-22.97,3.85
		C961.8,391.65,954.45,390.66,947.27,388.69z"/>
</g>
<g>
	<path class="st0" d="M191.98,223.69l-0.02-9.83c0-2.08-0.65-4.01-1.6-5.8c1.18-2.02,2.02-4.24,2.01-6.61
		c0-2.37-0.82-4.56-1.98-6.55c1.13-1.95,1.96-4.1,1.96-6.54c0-2.46-0.84-4.62-1.98-6.57c1.14-1.96,1.97-4.12,1.97-6.59
		c-0.05-7.05-5.54-12.79-12.27-12.79h-1.05l-4.61-9.15c-4.61-6.22-7.67-7.1-8.72-7.38c-0.44-0.13-1.87-0.37-3.77-0.62v-12.33h-19.95
		v11.75c-2.03,0.25-3.9,0.61-5.25,1.22c-1.43,0.41-6.32,2.26-9.69,8.83c-0.99,1.89-2.64,5.01-4.11,7.76
		c-6.59,0.18-11.9,5.89-11.9,12.9c0.02,2.43,0.85,4.58,1.99,6.51c-1.14,1.96-1.97,4.13-1.97,6.6c0.02,2.43,0.85,4.58,1.99,6.51
		c-1.13,1.95-1.96,4.11-1.96,6.55c0,2.48,0.85,4.67,2.02,6.63c-0.92,1.76-1.58,3.67-1.58,5.8l0.02,9.85
		c-27.18,14.73-44.43,43.47-44.38,74.61c0.03,22.63,8.88,43.89,24.9,59.88c15.99,15.94,37.23,24.73,59.81,24.73h0.13
		c22.63-0.03,43.9-8.88,59.88-24.9c15.98-16.04,24.76-37.33,24.71-59.96C236.55,267.06,219.21,238.37,191.98,223.69z"/>
	<g>
		<path class="st1" d="M123.28,193.12l56.85-0.08c2.26-0.01,4.09-2.1,4.09-4.69c-0.01-2.58-1.85-4.69-4.1-4.69l-56.85,0.09
			c-2.25,0-4.08,2.11-4.08,4.69C119.19,191.03,121.03,193.12,123.28,193.12z"/>
		<path class="st1" d="M123.26,180.02l56.85-0.09c2.26-0.01,4.1-2.13,4.09-4.7c-0.01-2.6-1.84-4.7-4.1-4.7l-6.08,0.01l-6.14-12.45
			c0,0-2.95-4.01-4.49-4.44c-1.5-0.44-19.01-2.36-24.43,0.03c0,0-2.64,0.76-4.7,4.77c-1.59,3.06-4.94,9.33-6.45,12.14l-4.57,0.01
			c-2.25,0-4.08,2.12-4.07,4.71C119.17,177.91,121.01,180.02,123.26,180.02z"/>
		<path class="st1" d="M123.3,206.23l56.85-0.09c2.27,0,4.1-2.1,4.09-4.7c0-2.6-1.84-4.7-4.1-4.69l-56.85,0.08
			c-2.25,0.01-4.08,2.1-4.08,4.71C119.21,204.13,121.05,206.23,123.3,206.23z"/>
		<g>
			<path class="st1" d="M132.33,288.78c-0.57,1.16-0.68,2.05-0.32,2.64c0.36,0.59,0.73,0.88,1.1,0.88c0.84,0,2-1.17,2.55-2.27
				c0.82-1.62,0.73-3.64,0.43-5.37C134.3,285.97,133.03,287.35,132.33,288.78z"/>
			<path class="st1" d="M156.75,291.06c-0.39,0.85-0.52,2.45-0.1,3.1c0.08,0.13,0.17,0.2,0.39,0.2c0.16,0,0.44-0.04,0.87-0.22
				c1.05-0.43,1.95-1.38,2.5-2.61c1.01-2.25,1.12-4.38,0.37-6.17c-0.14,0.17-0.29,0.34-0.43,0.52
				C159.01,287.51,157.62,289.21,156.75,291.06z"/>
			<path class="st1" d="M174.85,265.79c-7.72-16.56-14.39-35.04-20.39-56.41l-8.62,0.01c-5.57,20.08-11.73,37.57-18.82,53.38
				c5.66,2.62,10.06,7.54,12.53,13.97c3.9-1.6,7.89-2.17,12.13-1.76c3.56,0.34,6.56,1.2,8.94,2.52
				C162.91,274.79,168.34,268.93,174.85,265.79z"/>
			<path class="st1" d="M187.76,276.13c0.12,0.01,0.25,0.02,0.37,0.02c0.71,0,1.55-0.29,1.7-0.9c0.31-1.23-0.3-2.36-0.87-3.09
				c-1.4-1.79-4-3.13-6.06-3.13c-0.17,0-0.34,0.01-0.49,0.03c0.46,0.94,0.93,1.87,1.41,2.81
				C184.78,273.84,185.98,275.86,187.76,276.13z"/>
			<path class="st1" d="M114.46,274.52l0.02,0.01c0.19,0,0.77-0.24,2.1-2.41l0.11-0.17c0.83-1.64,1.66-3.33,2.51-5.12
				c-1.88,0.2-3.44,0.85-4.39,1.87c-0.83,0.89-1.2,2.06-1.1,3.49C113.82,273.8,114.24,274.41,114.46,274.52z"/>
			<path class="st1" d="M151.98,374.89c42.29-0.07,76.53-34.41,76.46-76.69c-0.04-30.83-18.32-57.37-44.6-69.47l-0.02-14.88
				c0-2.5-2.03-4.52-4.54-4.52l-19.2,0.03c5.88,20.76,12.41,38.68,19.92,54.69c4.32-0.82,8.15,0.21,11.29,3.02
				c2.19,1.96,4.29,5.36,4.02,8.53c-0.16,1.96-1.2,3.6-3,4.74c-1.29,0.81-2.65,1.23-4.03,1.23c-4.24,0.01-7.61-3.83-9.21-7.1
				c-0.61-1.21-1.22-2.43-1.82-3.66c-4.4,2.1-8.89,5.75-12.56,10.21c1.05,1.47,1.72,3.16,1.98,5.08c0.46,3.25-1.16,8.07-3.67,10.96
				c-2.7,3.11-6.16,3.66-9.25,1.42c-1.72-1.24-2.71-2.79-2.95-4.6c-0.55-4.17,3.08-8.6,5.71-11.83c0.12-0.14,0.24-0.28,0.35-0.43
				c-0.74-0.32-1.55-0.58-2.42-0.76c-4.6-0.95-8.72-0.84-11.75,0.36c-0.56,0.22-1.11,0.45-1.66,0.69c0.22,1.13,0.4,2.25,0.5,3.33
				c0.46,4.76-0.85,8.23-4.14,10.92c-1.26,1.03-2.91,1.63-4.52,1.62c-1.58,0.01-2.95-0.55-3.97-1.61c-1.79-1.87-2.59-3.98-2.38-6.29
				c0.42-4.61,4.65-8.13,6.45-9.43c0.52-0.38,1.07-0.75,1.63-1.1c-1.39-3.85-4.31-9.58-9.8-11.73c-1.12,2.37-2.26,4.71-3.41,6.98
				c-0.08,0.16-0.17,0.31-0.29,0.46c-1,1.53-3.61,4.95-6.83,4.95c-1.18,0-2.29-0.44-3.28-1.33c-3.08-2.71-3.21-7.32-1.97-10.67
				c1.55-4.19,5.66-6.69,11.01-6.71c0.56,0,1.12,0.03,1.69,0.08c6.93-15.33,12.98-32.36,18.47-51.96l-16.02,0.03
				c-2.51,0.01-4.53,2.04-4.53,4.54l0.02,14.87c-26.24,12.17-44.43,38.77-44.39,69.59C75.36,340.72,109.7,374.95,151.98,374.89z"/>
		</g>
		<rect x="150.11" y="132.91" class="st1" width="3.67" height="23.86"/>
	</g>
</g>
</svg>
