<?xml version="1.0" encoding="utf-8"?>
<!-- Generator: Adobe Illustrator 25.2.3, SVG Export Plug-In . SVG Version: 6.00 Build 0)  -->
<svg version="1.1" id="Camada_1" xmlns="http://www.w3.org/2000/svg" xmlns:xlink="http://www.w3.org/1999/xlink" x="0px" y="0px"
	 viewBox="0 0 1080 484.43" style="enable-background:new 0 0 1080 484.43;" xml:space="preserve">
<style type="text/css">
	.st0{fill:#FFFFFF;}
</style>
<g>
	<g>
		<path class="st0" d="M138.11,95.55h5.36v32.89h20.33v4.67h-25.7V95.55z"/>
		<path class="st0" d="M185.4,98.23c-0.66-0.65-0.99-1.43-0.99-2.36c0-0.93,0.33-1.73,0.99-2.39c0.66-0.66,1.49-0.99,2.49-0.99
			c1,0,1.83,0.31,2.5,0.94c0.66,0.63,0.99,1.41,0.99,2.33c0,0.97-0.33,1.78-0.99,2.44c-0.67,0.66-1.49,1-2.5,1
			C186.89,99.2,186.06,98.87,185.4,98.23z M185.32,104.67h5.15v28.43h-5.15V104.67z"/>
		<path class="st0" d="M241.55,104.67L229.1,133.1h-5.26l-12.45-28.43h5.36l9.76,22.8l9.98-22.8H241.55z"/>
		<path class="st0" d="M271.38,105.69c1.75-0.86,3.88-1.29,6.38-1.29v4.99c-0.29-0.03-0.68-0.05-1.18-0.05
			c-2.79,0-4.98,0.84-6.57,2.49c-1.59,1.67-2.39,4.04-2.39,7.11v14.17h-5.15v-28.43h4.94v4.77
			C268.3,107.8,269.62,106.54,271.38,105.69z"/>
		<path class="st0" d="M319.53,107.29c2.09,1.93,3.14,4.81,3.14,8.64v17.17h-4.88v-3.76c-0.86,1.32-2.08,2.33-3.68,3.03
			c-1.59,0.69-3.48,1.04-5.66,1.04c-3.18,0-5.73-0.77-7.64-2.3c-1.92-1.54-2.87-3.56-2.87-6.06c0-2.51,0.91-4.52,2.73-6.04
			c1.82-1.52,4.72-2.28,8.69-2.28h8.16v-1.02c0-2.22-0.64-3.92-1.93-5.09c-1.29-1.19-3.18-1.77-5.69-1.77
			c-1.68,0-3.33,0.27-4.94,0.83c-1.61,0.56-2.97,1.3-4.08,2.23l-2.15-3.86c1.47-1.18,3.22-2.08,5.26-2.71
			c2.04-0.63,4.2-0.94,6.49-0.94C314.42,104.4,317.44,105.36,319.53,107.29z M314.4,128.14c1.43-0.87,2.47-2.11,3.11-3.73v-3.97
			h-7.94c-4.36,0-6.55,1.47-6.55,4.4c0,1.44,0.56,2.56,1.67,3.38c1.11,0.82,2.65,1.23,4.61,1.23S312.97,129.02,314.4,128.14z"/>
		<path class="st0" d="M357.22,105.69c1.75-0.86,3.88-1.29,6.38-1.29v4.99c-0.29-0.03-0.68-0.05-1.18-0.05
			c-2.79,0-4.98,0.84-6.57,2.49c-1.59,1.67-2.39,4.04-2.39,7.11v14.17h-5.15v-28.43h4.94v4.77
			C354.14,107.8,355.47,106.54,357.22,105.69z"/>
		<path class="st0" d="M386.11,98.23c-0.66-0.65-0.99-1.43-0.99-2.36c0-0.93,0.33-1.73,0.99-2.39s1.49-0.99,2.49-0.99
			c1,0,1.83,0.31,2.5,0.94c0.66,0.63,0.99,1.41,0.99,2.33c0,0.97-0.33,1.78-0.99,2.44c-0.67,0.66-1.49,1-2.5,1
			C387.6,99.2,386.77,98.87,386.11,98.23z M386.03,104.67h5.15v28.43h-5.15V104.67z"/>
		<path class="st0" d="M436.49,107.29c2.09,1.93,3.14,4.81,3.14,8.64v17.17h-4.88v-3.76c-0.86,1.32-2.08,2.33-3.68,3.03
			c-1.59,0.69-3.48,1.04-5.66,1.04c-3.18,0-5.73-0.77-7.64-2.3c-1.92-1.54-2.87-3.56-2.87-6.06c0-2.51,0.91-4.52,2.73-6.04
			c1.82-1.52,4.72-2.28,8.69-2.28h8.16v-1.02c0-2.22-0.64-3.92-1.93-5.09c-1.29-1.19-3.18-1.77-5.69-1.77
			c-1.68,0-3.33,0.27-4.94,0.83c-1.61,0.56-2.97,1.3-4.08,2.23l-2.15-3.86c1.47-1.18,3.22-2.08,5.26-2.71
			c2.04-0.63,4.2-0.94,6.49-0.94C431.38,104.4,434.4,105.36,436.49,107.29z M431.37,128.14c1.43-0.87,2.47-2.11,3.11-3.73v-3.97
			h-7.94c-4.36,0-6.55,1.47-6.55,4.4c0,1.44,0.56,2.56,1.67,3.38c1.11,0.82,2.65,1.23,4.61,1.23S429.93,129.02,431.37,128.14z"/>
	</g>
	<path class="st0" d="M311.41,249.68l-0.16-67.07l-32.89,55.25H266.7l-32.74-53.81v65.64h-24.27V137.89h21.4l41.84,69.46l41.2-69.46
		h21.24l0.32,111.78H311.41z"/>
	<g>
		<path class="st0" d="M426.19,201.11l-62.87,16.5c2.48,4.85,6.23,8.22,11.23,10.1c5.01,1.88,10.65,2,16.94,0.35
			c4.32-1.13,7.99-2.79,11-4.95c3.01-2.17,5.59-5.02,7.74-8.56l16.47,10.54c-5.47,11.02-15.73,18.49-30.76,22.44
			c-9.37,2.46-18.15,2.81-26.31,1.04c-8.16-1.76-15.06-5.38-20.67-10.83c-5.62-5.46-9.5-12.32-11.66-20.55
			c-2.14-8.14-2.13-15.98,0.01-23.53c2.14-7.55,6.11-14.04,11.9-19.47c5.78-5.42,12.85-9.23,21.19-11.42
			c8.13-2.13,15.95-2.32,23.46-0.54c7.51,1.78,14,5.43,19.48,10.98c5.47,5.55,9.35,12.65,11.62,21.3
			C425.03,194.81,425.44,197.02,426.19,201.11z M362.8,189.2c-2.9,4.06-4.06,8.88-3.47,14.45l40.93-10.74
			c-2.2-5.03-5.57-8.64-10.1-10.81c-4.53-2.17-9.48-2.54-14.83-1.14C369.87,182.38,365.7,185.13,362.8,189.2z"/>
	</g>
	<g>
		<path class="st0" d="M670.66,201.11l-62.87,16.5c2.48,4.85,6.23,8.22,11.23,10.1c5.01,1.88,10.65,2,16.94,0.35
			c4.32-1.13,7.99-2.79,11-4.95c3.01-2.17,5.59-5.02,7.74-8.56l16.47,10.54c-5.47,11.02-15.73,18.49-30.76,22.44
			c-9.37,2.46-18.15,2.81-26.31,1.04c-8.16-1.76-15.06-5.38-20.67-10.83c-5.62-5.46-9.5-12.32-11.66-20.55
			c-2.14-8.14-2.13-15.98,0.01-23.53s6.11-14.04,11.9-19.47c5.78-5.42,12.85-9.23,21.19-11.42c8.13-2.13,15.95-2.32,23.46-0.54
			c7.51,1.78,14,5.43,19.48,10.98c5.47,5.55,9.35,12.65,11.62,21.3C669.5,194.81,669.91,197.02,670.66,201.11z M607.27,189.2
			c-2.9,4.06-4.06,8.88-3.47,14.45l40.93-10.74c-2.2-5.03-5.57-8.64-10.1-10.81c-4.53-2.17-9.48-2.54-14.83-1.14
			C614.34,182.38,610.17,185.13,607.27,189.2z"/>
	</g>
	<g>
		<path class="st0" d="M504.71,171.92c6.55,6.39,9.82,15.86,9.82,28.42v49.19h-24.91v-45.35c0-6.81-1.49-11.9-4.47-15.25
			c-2.98-3.35-7.29-5.03-12.93-5.03c-6.28,0-11.28,1.95-15.01,5.83c-3.73,3.89-5.59,9.66-5.59,17.33v42.48H426.7v-88.77h23.79v12.91
			c3.3-3.62,7.4-6.42,12.29-8.38c4.89-1.97,10.28-2.96,16.13-2.96C489.57,162.33,498.16,165.53,504.71,171.92z"/>
	</g>
	<g>
		<path class="st0" d="M580.16,243.95c-2.45,1.82-5.46,3.17-9.03,4.08c-3.57,0.9-7.32,1.36-11.25,1.36
			c-10.22,0-18.13-2.61-23.71-7.83c-5.59-5.21-8.38-12.88-8.38-23v-35.28h-13.26v-19.16h13.26v-20.93h24.91v20.93h21.4v19.16h-21.4
			v34.97c0,3.62,0.93,6.42,2.79,8.38c1.86,1.97,4.49,2.96,7.9,2.96c3.94,0,7.29-1.06,10.06-3.19L580.16,243.95z"/>
	</g>
	<g>
		<path class="st0" d="M683.81,247.03c-6.42-1.76-11.53-3.97-15.35-6.64l7.83-17.92c3.61,2.46,7.98,4.46,13.09,6
			c5.11,1.55,10.13,2.32,15.04,2.32c9.93,0,14.9-2.61,14.9-7.84c0-2.45-1.35-4.21-4.07-5.28c-2.71-1.07-6.87-1.97-12.48-2.72
			c-6.62-1.07-12.09-2.29-16.4-3.68c-4.31-1.38-8.05-3.84-11.2-7.36c-3.16-3.51-4.74-8.53-4.74-15.04c0-5.45,1.48-10.27,4.44-14.48
			s7.27-7.49,12.94-9.84c5.67-2.35,12.36-3.52,20.08-3.52c5.72,0,11.41,0.66,17.08,2c5.67,1.34,10.36,3.18,14.06,5.52l-7.82,17.76
			c-7.12-4.27-14.9-6.4-23.32-6.4c-5.02,0-8.78,0.75-11.28,2.23c-2.51,1.49-3.76,3.42-3.76,5.76c0,2.66,1.35,4.53,4.06,5.6
			c2.71,1.07,7.02,2.08,12.94,3.04c6.62,1.17,12.03,2.42,16.24,3.76c4.22,1.34,7.87,3.76,10.98,7.28c3.11,3.52,4.66,8.43,4.66,14.72
			c0,5.33-1.5,10.08-4.51,14.24c-3.01,4.16-7.4,7.38-13.17,9.68c-5.77,2.29-12.61,3.44-20.53,3.44
			C696.8,249.67,690.23,248.79,683.81,247.03z"/>
	</g>
	<g>
		<path class="st0" d="M367.56,296.11c5.77-2.43,12.42-3.64,19.96-3.64v26.24c-3.16-0.25-5.28-0.37-6.38-0.37
			c-8.14,0-14.52,2.28-19.13,6.84c-4.62,4.55-6.93,11.38-6.93,20.5v46.28h-28.42v-99.48h27.15v14.39
			C357.21,302.12,361.8,298.54,367.56,296.11z"/>
	</g>
	<g>
		<path class="st0" d="M426.38,256.76h28.42v135.19h-28.42V256.76z"/>
	</g>
	<g>
		<path class="st0" d="M548.73,303.4c7.47,7.29,11.2,18.1,11.2,32.43v56.12h-28.42V340.2c0-7.77-1.7-13.57-5.1-17.4
			c-3.4-3.82-8.32-5.74-14.76-5.74c-7.17,0-12.87,2.22-17.12,6.66c-4.26,4.43-6.38,11.02-6.38,19.77v48.46h-28.42V256.76h28.42
			v47.37c3.76-3.77,8.32-6.66,13.67-8.66c5.34-2.01,11.17-3.01,17.49-3.01C531.45,292.47,541.26,296.11,548.73,303.4z"/>
	</g>
	<g>
		<path class="st0" d="M640.83,301.84c8.13,7.23,12.2,18.13,12.2,32.71v55.94h-26.6v-12.21c-5.35,9.11-15.3,13.67-29.88,13.67
			c-7.53,0-14.06-1.27-19.59-3.82c-5.53-2.55-9.74-6.08-12.66-10.57c-2.92-4.49-4.37-9.59-4.37-15.3c0-9.11,3.42-16.27,10.29-21.5
			c6.86-5.22,17.46-7.84,31.79-7.84h22.59c0-6.19-1.88-10.96-5.64-14.31c-3.77-3.33-9.42-5-16.95-5c-5.22,0-10.35,0.82-15.4,2.46
			c-5.04,1.64-9.32,3.86-12.84,6.65l-10.2-19.86c5.34-3.77,11.75-6.68,19.22-8.75c7.47-2.06,15.15-3.1,23.05-3.1
			C621.03,291.01,632.69,294.62,640.83,301.84z M616.59,369.44c3.77-2.24,6.44-5.55,8.02-9.92v-10.02h-19.49
			c-11.66,0-17.49,3.82-17.49,11.48c0,3.64,1.42,6.53,4.27,8.66c2.86,2.12,6.77,3.19,11.76,3.19
			C608.51,372.82,612.82,371.69,616.59,369.44z"/>
	</g>
	<g>
		<rect x="393.03" y="292.47" class="st0" width="28.42" height="98.02"/>
	</g>
	<g>
		<rect x="393.03" y="293.93" class="st0" width="28.42" height="98.02"/>
	</g>
	<g>
		<path class="st0" d="M927.68,337.59l-70.37,18.47c2.78,5.43,6.97,9.2,12.58,11.3c5.6,2.11,11.92,2.24,18.96,0.39
			c4.84-1.27,8.94-3.12,12.31-5.54c3.37-2.43,6.26-5.62,8.66-9.58l18.44,11.8c-6.12,12.33-17.61,20.7-34.43,25.12
			c-10.49,2.75-20.31,3.15-29.45,1.17c-9.14-1.97-16.85-6.02-23.14-12.13c-6.29-6.12-10.64-13.79-13.05-23
			c-2.39-9.11-2.39-17.89,0.01-26.34c2.4-8.45,6.84-15.72,13.32-21.79c6.47-6.07,14.38-10.34,23.72-12.79
			c9.1-2.39,17.86-2.59,26.26-0.6c8.41,1.99,15.67,6.08,21.81,12.29c6.12,6.22,10.46,14.17,13,23.85
			C926.39,330.54,926.85,333.01,927.68,337.59z M856.73,324.25c-3.24,4.54-4.54,9.94-3.89,16.17l45.82-12.02
			c-2.47-5.63-6.23-9.67-11.31-12.1c-5.07-2.42-10.61-2.85-16.6-1.28C864.64,316.62,859.97,319.69,856.73,324.25z"/>
	</g>
	<g>
		<path class="st0" d="M741.93,304.91c7.33,7.15,10.99,17.75,10.99,31.81v55.06h-27.89v-50.77c0-7.62-1.66-13.32-5.01-17.07
			c-3.33-3.75-8.16-5.63-14.48-5.63c-7.03,0-12.63,2.18-16.8,6.52c-4.18,4.35-6.26,10.81-6.26,19.39v47.55h-27.89v-99.36h26.63
			v14.45c3.7-4.05,8.28-7.18,13.76-9.38c5.48-2.2,11.5-3.31,18.06-3.31C724.98,294.18,734.6,297.76,741.93,304.91z"/>
	</g>
	<g>
		<path class="st0" d="M826.39,385.54c-2.75,2.03-6.11,3.55-10.11,4.56c-3.99,1.01-8.19,1.52-12.6,1.52
			c-11.44,0-20.29-2.92-26.54-8.76c-6.26-5.83-9.38-14.41-9.38-25.74v-39.49h-14.84v-21.45h14.84v-23.43h27.89v23.43h23.95v21.45
			h-23.95v39.14c0,4.05,1.04,7.18,3.13,9.38c2.08,2.21,5.03,3.31,8.85,3.31c4.41,0,8.16-1.19,11.26-3.58L826.39,385.54z"/>
	</g>
	<g>
		<path class="st0" d="M943.74,388.98c-7.19-1.97-12.91-4.45-17.18-7.43l8.76-20.06c4.04,2.75,8.93,4.99,14.65,6.71
			c5.72,1.73,11.34,2.59,16.84,2.59c11.12,0,16.68-2.92,16.68-8.77c0-2.74-1.51-4.72-4.55-5.91c-3.03-1.19-7.69-2.21-13.97-3.04
			c-7.41-1.19-13.53-2.56-18.36-4.12c-4.83-1.55-9.01-4.3-12.54-8.24c-3.54-3.93-5.31-9.55-5.31-16.83c0-6.1,1.65-11.49,4.97-16.21
			c3.31-4.72,8.14-8.39,14.48-11.01c6.34-2.63,13.84-3.94,22.48-3.94c6.4,0,12.77,0.74,19.11,2.24c6.34,1.49,11.59,3.55,15.74,6.18
			l-8.75,19.88c-7.97-4.78-16.68-7.16-26.1-7.16c-5.61,0-9.82,0.84-12.63,2.5c-2.81,1.67-4.21,3.83-4.21,6.45
			c0,2.98,1.51,5.07,4.54,6.27s7.86,2.33,14.48,3.41c7.41,1.31,13.47,2.71,18.18,4.21c4.72,1.49,8.81,4.21,12.29,8.15
			c3.48,3.94,5.22,9.43,5.22,16.48c0,5.97-1.68,11.28-5.05,15.94c-3.37,4.65-8.28,8.26-14.74,10.84
			c-6.46,2.56-14.12,3.85-22.98,3.85C958.28,391.94,950.93,390.96,943.74,388.98z"/>
	</g>
	<path class="st0" d="M320.47,337.2c-4.14-5.4-9.84-9.26-17.13-11.57c5.35-2.79,9.51-6.62,12.48-11.48
		c2.98-4.86,4.46-10.38,4.46-16.57c0-10.2-4.16-18.29-12.48-24.24c-8.32-5.95-20.25-8.93-35.8-8.93h-46.46
		c4.67,10.56,7.23,22.12,7.24,34.04c0.05,21.84-8.16,42.43-23.09,58.26v35.24h65.95c16.64,0,29.31-3.01,37.99-9.02
		c8.69-6.01,13.03-14.61,13.03-25.79C326.66,349.25,324.6,342.6,320.47,337.2z M239.02,286.64h29.33c7.29,0,12.82,1.24,16.58,3.73
		c3.77,2.49,5.65,6.22,5.65,11.2s-1.88,8.75-5.65,11.3c-3.77,2.55-9.29,3.82-16.58,3.82h-29.33V286.64z M291.04,365.89
		c-3.95,2.55-9.81,3.83-17.58,3.83h-34.43v-31.53h34.43c15.67,0,23.5,5.29,23.5,15.85C296.96,359.4,294.99,363.34,291.04,365.89z"/>
	<g>
		<path class="st0" d="M119.43,193.34l56.87-0.08c2.26-0.01,4.09-2.1,4.09-4.7c-0.01-2.59-1.85-4.69-4.1-4.69l-56.87,0.09
			c-2.25,0-4.08,2.11-4.08,4.69C115.35,191.25,117.18,193.34,119.43,193.34z"/>
		<path class="st0" d="M119.41,180.23l56.87-0.09c2.26-0.01,4.1-2.13,4.09-4.7c-0.01-2.6-1.84-4.7-4.1-4.7l-6.08,0.01l-6.14-12.45
			c0,0-2.96-4.01-4.49-4.44c-1.51-0.44-19.02-2.36-24.44,0.03c0,0-2.65,0.76-4.7,4.77c-1.6,3.06-4.94,9.33-6.45,12.15l-4.57,0.01
			c-2.25,0-4.08,2.12-4.08,4.71C115.33,178.12,117.16,180.24,119.41,180.23z"/>
		<path class="st0" d="M119.45,206.45l56.87-0.09c2.27,0,4.1-2.1,4.09-4.7c0-2.6-1.84-4.7-4.1-4.69l-56.87,0.08
			c-2.25,0.01-4.08,2.1-4.08,4.71C115.37,204.36,117.2,206.46,119.45,206.45z"/>
		<g>
			<path class="st0" d="M128.49,289.04c-0.57,1.16-0.68,2.05-0.32,2.65c0.36,0.59,0.73,0.88,1.1,0.88c0.84,0,2-1.17,2.55-2.27
				c0.82-1.62,0.73-3.64,0.43-5.37C130.46,286.22,129.19,287.61,128.49,289.04z"/>
			<path class="st0" d="M152.92,291.31c-0.39,0.85-0.52,2.45-0.1,3.1c0.08,0.13,0.17,0.2,0.39,0.2c0.16,0,0.44-0.04,0.87-0.22
				c1.05-0.43,1.95-1.39,2.51-2.61c1.01-2.25,1.13-4.38,0.37-6.17c-0.14,0.17-0.29,0.34-0.43,0.52
				C155.18,287.77,153.78,289.46,152.92,291.31z"/>
			<path class="st0" d="M171.03,266.04c-7.72-16.57-14.4-35.05-20.4-56.44l-8.62,0.01c-5.57,20.09-11.73,37.58-18.83,53.4
				c5.66,2.62,10.07,7.54,12.53,13.97c3.9-1.6,7.89-2.17,12.14-1.76c3.56,0.34,6.56,1.2,8.95,2.52
				C159.08,275.04,164.51,269.18,171.03,266.04z"/>
			<path class="st0" d="M183.94,276.38c0.12,0.01,0.25,0.02,0.37,0.02c0.71,0,1.55-0.29,1.7-0.9c0.31-1.23-0.3-2.36-0.87-3.09
				c-1.4-1.79-4-3.13-6.06-3.13c-0.17,0-0.34,0.01-0.49,0.03c0.46,0.94,0.93,1.87,1.41,2.81
				C180.96,274.09,182.16,276.11,183.94,276.38z"/>
			<path class="st0" d="M110.61,274.77l0.02,0.01c0.19,0,0.77-0.24,2.1-2.41l0.11-0.17c0.83-1.64,1.66-3.33,2.52-5.12
				c-1.88,0.2-3.44,0.85-4.39,1.87c-0.83,0.89-1.2,2.06-1.1,3.49C109.97,274.05,110.39,274.66,110.61,274.77z"/>
			<path class="st0" d="M148.15,375.18c42.31-0.07,76.56-34.42,76.49-76.72c-0.04-30.85-18.32-57.39-44.61-69.49L180,214.08
				c0-2.5-2.03-4.52-4.54-4.52l-19.2,0.03c5.89,20.77,12.41,38.69,19.92,54.71c4.32-0.82,8.15,0.21,11.29,3.03
				c2.19,1.96,4.29,5.36,4.03,8.54c-0.16,1.96-1.2,3.6-3,4.74c-1.29,0.81-2.65,1.23-4.03,1.23c-4.24,0.01-7.61-3.83-9.21-7.1
				c-0.61-1.21-1.22-2.43-1.82-3.66c-4.4,2.1-8.89,5.75-12.56,10.21c1.05,1.47,1.72,3.17,1.98,5.08c0.46,3.25-1.16,8.07-3.67,10.96
				c-2.71,3.11-6.16,3.66-9.25,1.42c-1.72-1.24-2.71-2.8-2.95-4.61c-0.55-4.17,3.08-8.6,5.71-11.84c0.12-0.14,0.24-0.28,0.35-0.43
				c-0.74-0.32-1.55-0.59-2.42-0.76c-4.6-0.95-8.72-0.84-11.76,0.36c-0.56,0.22-1.11,0.45-1.66,0.69c0.22,1.13,0.4,2.25,0.5,3.33
				c0.46,4.76-0.85,8.23-4.14,10.92c-1.26,1.03-2.91,1.63-4.52,1.62c-1.58,0.01-2.96-0.55-3.97-1.61c-1.79-1.87-2.59-3.98-2.38-6.29
				c0.42-4.61,4.65-8.13,6.46-9.44c0.52-0.38,1.07-0.75,1.63-1.1c-1.39-3.85-4.31-9.58-9.8-11.74c-1.12,2.37-2.26,4.71-3.41,6.98
				c-0.08,0.16-0.17,0.31-0.29,0.46c-1,1.53-3.61,4.95-6.83,4.96c-1.18,0-2.29-0.45-3.29-1.33c-3.08-2.71-3.21-7.32-1.97-10.68
				c1.55-4.19,5.67-6.7,11.01-6.71c0.56,0,1.12,0.03,1.69,0.08c6.93-15.34,12.99-32.38,18.48-51.98l-16.03,0.03
				c-2.51,0.01-4.53,2.04-4.53,4.54l0.02,14.88c-26.25,12.18-44.45,38.78-44.4,69.62C71.5,340.99,105.85,375.24,148.15,375.18z"/>
		</g>
		<rect x="146.28" y="133.1" class="st0" width="3.67" height="23.87"/>
	</g>
</g>
</svg>
