<?xml version="1.0" encoding="utf-8"?>
<!-- Generator: Adobe Illustrator 25.2.3, SVG Export Plug-In . SVG Version: 6.00 Build 0)  -->
<svg version="1.1" id="Camada_1" xmlns="http://www.w3.org/2000/svg" xmlns:xlink="http://www.w3.org/1999/xlink" x="0px" y="0px"
	 viewBox="0 0 1080 484.43" style="enable-background:new 0 0 1080 484.43;" xml:space="preserve">
<style type="text/css">
	.st0{fill:#1D1D1B;}
	.st1{fill:#FFFFFF;}
</style>
<g>
	<g>
		<path class="st0" d="M132.94,90.55h5.36v32.89h20.33v4.67h-25.7V90.55z"/>
		<path class="st0" d="M180.23,93.23c-0.66-0.65-0.99-1.43-0.99-2.36c0-0.93,0.33-1.73,0.99-2.39c0.66-0.66,1.49-0.99,2.49-0.99
			c1,0,1.83,0.31,2.5,0.94c0.66,0.63,0.99,1.41,0.99,2.33c0,0.97-0.33,1.78-0.99,2.44c-0.67,0.66-1.49,1-2.5,1
			C181.73,94.2,180.9,93.87,180.23,93.23z M180.15,99.67h5.15v28.43h-5.15V99.67z"/>
		<path class="st0" d="M236.38,99.67l-12.44,28.43h-5.26l-12.45-28.43h5.36l9.76,22.8l9.98-22.8H236.38z"/>
		<path class="st0" d="M266.21,100.69c1.75-0.86,3.88-1.29,6.38-1.29v4.99c-0.29-0.03-0.68-0.05-1.18-0.05
			c-2.79,0-4.98,0.84-6.57,2.49c-1.59,1.67-2.39,4.04-2.39,7.11v14.17h-5.15V99.67h4.94v4.77
			C263.13,102.8,264.46,101.54,266.21,100.69z"/>
		<path class="st0" d="M314.36,102.3c2.09,1.93,3.14,4.81,3.14,8.64v17.17h-4.88v-3.76c-0.86,1.32-2.08,2.33-3.68,3.03
			c-1.59,0.69-3.48,1.04-5.66,1.04c-3.18,0-5.73-0.77-7.64-2.3c-1.92-1.54-2.87-3.56-2.87-6.06c0-2.51,0.91-4.52,2.73-6.04
			c1.82-1.52,4.72-2.28,8.69-2.28h8.16v-1.02c0-2.22-0.64-3.92-1.93-5.09c-1.29-1.19-3.18-1.77-5.69-1.77
			c-1.68,0-3.33,0.27-4.94,0.83c-1.61,0.56-2.97,1.3-4.08,2.23l-2.15-3.86c1.47-1.18,3.22-2.08,5.26-2.71
			c2.04-0.63,4.2-0.94,6.49-0.94C309.26,99.4,312.27,100.36,314.36,102.3z M309.24,123.14c1.43-0.87,2.47-2.11,3.11-3.73v-3.97
			h-7.94c-4.36,0-6.55,1.47-6.55,4.4c0,1.44,0.56,2.56,1.67,3.38c1.11,0.82,2.65,1.23,4.61,1.23
			C306.11,124.45,307.81,124.02,309.24,123.14z"/>
		<path class="st0" d="M352.06,100.69c1.75-0.86,3.88-1.29,6.38-1.29v4.99c-0.29-0.03-0.68-0.05-1.18-0.05
			c-2.79,0-4.98,0.84-6.57,2.49c-1.59,1.67-2.39,4.04-2.39,7.11v14.17h-5.15V99.67h4.94v4.77
			C348.98,102.8,350.3,101.54,352.06,100.69z"/>
		<path class="st0" d="M380.94,93.23c-0.66-0.65-0.99-1.43-0.99-2.36c0-0.93,0.33-1.73,0.99-2.39c0.66-0.66,1.49-0.99,2.49-0.99
			c1,0,1.83,0.31,2.5,0.94c0.66,0.63,0.99,1.41,0.99,2.33c0,0.97-0.33,1.78-0.99,2.44c-0.67,0.66-1.49,1-2.5,1
			C382.44,94.2,381.6,93.87,380.94,93.23z M380.86,99.67h5.15v28.43h-5.15V99.67z"/>
		<path class="st0" d="M431.32,102.3c2.09,1.93,3.14,4.81,3.14,8.64v17.17h-4.88v-3.76c-0.86,1.32-2.08,2.33-3.68,3.03
			c-1.59,0.69-3.48,1.04-5.66,1.04c-3.18,0-5.73-0.77-7.64-2.3c-1.92-1.54-2.87-3.56-2.87-6.06c0-2.51,0.91-4.52,2.73-6.04
			c1.82-1.52,4.72-2.28,8.69-2.28h8.16v-1.02c0-2.22-0.64-3.92-1.93-5.09c-1.29-1.19-3.18-1.77-5.69-1.77
			c-1.68,0-3.33,0.27-4.94,0.83c-1.61,0.56-2.97,1.3-4.08,2.23l-2.15-3.86c1.47-1.18,3.22-2.08,5.26-2.71
			c2.04-0.63,4.2-0.94,6.49-0.94C426.22,99.4,429.23,100.36,431.32,102.3z M426.2,123.14c1.43-0.87,2.47-2.11,3.11-3.73v-3.97h-7.94
			c-4.36,0-6.55,1.47-6.55,4.4c0,1.44,0.56,2.56,1.67,3.38c1.11,0.82,2.65,1.23,4.61,1.23C423.07,124.45,424.77,124.02,426.2,123.14
			z"/>
	</g>
	<path class="st0" d="M306.25,244.68l-0.16-67.07l-32.89,55.25h-11.66l-32.73-53.81v65.64h-24.27V132.89h21.4l41.84,69.46
		l41.2-69.46h21.24l0.32,111.78H306.25z"/>
	<g>
		<path class="st0" d="M421.03,196.12l-62.87,16.5c2.48,4.85,6.23,8.22,11.23,10.1c5.01,1.88,10.65,2,16.94,0.35
			c4.32-1.13,7.99-2.79,11-4.95c3.01-2.17,5.59-5.02,7.74-8.56l16.47,10.54c-5.47,11.02-15.73,18.49-30.76,22.44
			c-9.37,2.46-18.15,2.81-26.31,1.04c-8.16-1.76-15.06-5.38-20.67-10.83c-5.62-5.46-9.5-12.32-11.66-20.55
			c-2.14-8.14-2.13-15.98,0.01-23.53s6.11-14.04,11.9-19.47c5.78-5.42,12.85-9.23,21.19-11.42c8.13-2.13,15.95-2.32,23.46-0.54
			c7.51,1.78,14,5.43,19.48,10.98c5.47,5.55,9.35,12.65,11.62,21.3C419.87,189.82,420.28,192.02,421.03,196.12z M357.64,184.2
			c-2.9,4.06-4.06,8.88-3.47,14.45l40.93-10.74c-2.2-5.03-5.57-8.64-10.1-10.81c-4.53-2.17-9.48-2.54-14.83-1.14
			C364.7,177.39,360.53,180.13,357.64,184.2z"/>
	</g>
	<g>
		<path class="st0" d="M665.49,196.12l-62.87,16.5c2.48,4.85,6.23,8.22,11.23,10.1c5.01,1.88,10.65,2,16.94,0.35
			c4.32-1.13,7.99-2.79,11-4.95c3.01-2.17,5.59-5.02,7.74-8.56l16.47,10.54c-5.47,11.02-15.73,18.49-30.76,22.44
			c-9.37,2.46-18.15,2.81-26.31,1.04c-8.16-1.76-15.06-5.38-20.67-10.83c-5.62-5.46-9.5-12.32-11.66-20.55
			c-2.14-8.14-2.13-15.98,0.01-23.53s6.11-14.04,11.9-19.47c5.78-5.42,12.85-9.23,21.19-11.42c8.13-2.13,15.95-2.32,23.46-0.54
			c7.52,1.78,14,5.43,19.48,10.98c5.47,5.55,9.35,12.65,11.62,21.3C664.34,189.82,664.75,192.02,665.49,196.12z M602.11,184.2
			c-2.9,4.06-4.06,8.88-3.47,14.45l40.93-10.74c-2.2-5.03-5.57-8.64-10.1-10.81c-4.53-2.17-9.48-2.54-14.83-1.14
			C609.17,177.39,605,180.13,602.11,184.2z"/>
	</g>
	<g>
		<path class="st0" d="M499.54,166.92c6.55,6.39,9.82,15.86,9.82,28.42v49.19h-24.91v-45.35c0-6.81-1.49-11.9-4.47-15.25
			c-2.98-3.35-7.29-5.03-12.93-5.03c-6.28,0-11.28,1.95-15.01,5.83c-3.73,3.89-5.59,9.66-5.59,17.33v42.48h-24.91v-88.77h23.79
			v12.91c3.3-3.62,7.4-6.42,12.29-8.38c4.89-1.97,10.28-2.96,16.13-2.96C484.4,157.33,493,160.53,499.54,166.92z"/>
	</g>
	<g>
		<path class="st0" d="M575,238.96c-2.45,1.82-5.46,3.17-9.03,4.08c-3.57,0.9-7.32,1.36-11.25,1.36c-10.22,0-18.13-2.61-23.71-7.83
			c-5.59-5.21-8.38-12.88-8.38-23v-35.28h-13.26v-19.16h13.26v-20.93h24.91v20.93h21.4v19.16h-21.4v34.97
			c0,3.62,0.93,6.42,2.79,8.38c1.86,1.97,4.49,2.96,7.9,2.96c3.94,0,7.29-1.06,10.06-3.19L575,238.96z"/>
	</g>
	<g>
		<path class="st0" d="M678.65,242.03c-6.42-1.76-11.53-3.97-15.35-6.64l7.83-17.92c3.61,2.46,7.98,4.46,13.09,6
			c5.11,1.55,10.13,2.32,15.04,2.32c9.93,0,14.9-2.61,14.9-7.84c0-2.45-1.35-4.21-4.07-5.28c-2.71-1.07-6.87-1.97-12.48-2.72
			c-6.62-1.07-12.09-2.29-16.4-3.68c-4.31-1.38-8.05-3.84-11.2-7.36c-3.16-3.51-4.74-8.53-4.74-15.04c0-5.45,1.48-10.27,4.44-14.48
			c2.96-4.21,7.27-7.49,12.94-9.84c5.67-2.35,12.36-3.52,20.08-3.52c5.72,0,11.41,0.66,17.08,2c5.67,1.34,10.36,3.18,14.06,5.52
			l-7.82,17.76c-7.12-4.27-14.9-6.4-23.32-6.4c-5.02,0-8.78,0.75-11.28,2.23c-2.51,1.49-3.76,3.42-3.76,5.76
			c0,2.66,1.35,4.53,4.06,5.6c2.71,1.07,7.02,2.08,12.94,3.04c6.62,1.17,12.03,2.42,16.24,3.76c4.22,1.34,7.87,3.76,10.98,7.28
			c3.11,3.52,4.66,8.43,4.66,14.72c0,5.33-1.5,10.08-4.51,14.24c-3.01,4.16-7.4,7.38-13.17,9.68c-5.77,2.29-12.61,3.44-20.53,3.44
			C691.64,244.67,685.07,243.79,678.65,242.03z"/>
	</g>
	<g>
		<path class="st0" d="M315.31,332.2c4.13,5.4,6.19,12.05,6.19,19.95c0,11.18-4.34,19.78-13.03,25.79
			c-8.68,6.01-21.35,9.02-37.99,9.02h-65.95V259.41h62.31c15.55,0,27.48,2.98,35.8,8.93c8.32,5.95,12.48,14.04,12.48,24.24
			c0,6.19-1.48,11.72-4.46,16.57c-2.97,4.86-7.13,8.69-12.48,11.48C305.46,322.94,311.17,326.79,315.31,332.2z M233.86,281.64v30.06
			h29.33c7.29,0,12.82-1.28,16.58-3.82c3.77-2.55,5.65-6.32,5.65-11.3s-1.88-8.71-5.65-11.2s-9.29-3.73-16.58-3.73H233.86z
			 M285.88,360.89c3.95-2.55,5.92-6.49,5.92-11.84c0-10.56-7.83-15.85-23.5-15.85h-34.43v31.53h34.43
			C276.07,364.72,281.93,363.45,285.88,360.89z"/>
	</g>
	<g>
		<path class="st0" d="M362.4,291.11c5.77-2.43,12.42-3.64,19.96-3.64v26.24c-3.16-0.25-5.28-0.37-6.38-0.37
			c-8.14,0-14.52,2.28-19.13,6.84c-4.62,4.55-6.93,11.38-6.93,20.5v46.28H321.5v-99.48h27.15v14.39
			C352.05,297.12,356.64,293.54,362.4,291.11z"/>
	</g>
	<g>
		<path class="st0" d="M421.21,251.76h28.42v135.19h-28.42V251.76z"/>
	</g>
	<g>
		<path class="st0" d="M543.56,298.4c7.47,7.29,11.2,18.1,11.2,32.43v56.12h-28.42V335.2c0-7.77-1.7-13.57-5.1-17.4
			c-3.4-3.82-8.32-5.74-14.76-5.74c-7.17,0-12.87,2.22-17.12,6.66c-4.26,4.43-6.38,11.02-6.38,19.77v48.46h-28.42V251.76h28.42
			v47.37c3.76-3.77,8.32-6.66,13.67-8.66c5.34-2.01,11.17-3.01,17.49-3.01C526.28,287.47,536.09,291.11,543.56,298.4z"/>
	</g>
	<g>
		<path class="st0" d="M635.66,296.85c8.13,7.23,12.2,18.13,12.2,32.71v55.94h-26.6v-12.21c-5.35,9.11-15.3,13.67-29.88,13.67
			c-7.53,0-14.06-1.27-19.59-3.82c-5.53-2.55-9.74-6.08-12.66-10.57c-2.92-4.49-4.37-9.59-4.37-15.3c0-9.11,3.42-16.27,10.29-21.5
			c6.86-5.22,17.46-7.84,31.79-7.84h22.59c0-6.19-1.88-10.96-5.64-14.31c-3.77-3.33-9.42-5-16.95-5c-5.22,0-10.35,0.82-15.4,2.46
			c-5.04,1.64-9.32,3.86-12.84,6.65l-10.2-19.86c5.34-3.77,11.75-6.68,19.22-8.75c7.47-2.06,15.15-3.1,23.05-3.1
			C615.86,286.01,627.52,289.62,635.66,296.85z M611.42,364.44c3.77-2.24,6.44-5.55,8.02-9.92V344.5h-19.49
			c-11.66,0-17.49,3.82-17.49,11.48c0,3.64,1.42,6.53,4.27,8.66c2.86,2.12,6.77,3.19,11.76,3.19
			C603.35,367.82,607.66,366.7,611.42,364.44z"/>
	</g>
	<g>
		<rect x="387.87" y="287.47" class="st0" width="28.42" height="98.02"/>
	</g>
	<g>
		<rect x="387.87" y="288.93" class="st0" width="28.42" height="98.02"/>
	</g>
	<g>
		<path class="st0" d="M922.52,332.59l-70.37,18.47c2.78,5.43,6.97,9.2,12.58,11.3c5.6,2.11,11.92,2.24,18.96,0.39
			c4.84-1.27,8.94-3.12,12.31-5.54c3.37-2.43,6.26-5.62,8.66-9.58l18.44,11.8c-6.12,12.33-17.61,20.7-34.43,25.12
			c-10.49,2.75-20.31,3.15-29.45,1.17c-9.14-1.97-16.85-6.02-23.14-12.13c-6.29-6.12-10.64-13.79-13.05-23
			c-2.39-9.11-2.39-17.89,0.01-26.34c2.4-8.45,6.84-15.72,13.32-21.79c6.47-6.07,14.38-10.34,23.72-12.79
			c9.1-2.39,17.86-2.59,26.26-0.6c8.41,1.99,15.67,6.08,21.81,12.29c6.12,6.22,10.46,14.17,13,23.85
			C921.23,325.54,921.68,328.01,922.52,332.59z M851.57,319.25c-3.24,4.54-4.54,9.94-3.89,16.17l45.82-12.02
			c-2.47-5.63-6.23-9.67-11.31-12.1c-5.07-2.42-10.61-2.85-16.6-1.28C859.48,311.63,854.81,314.69,851.57,319.25z"/>
	</g>
	<g>
		<path class="st0" d="M736.76,299.91c7.33,7.15,10.99,17.75,10.99,31.81v55.06h-27.89v-50.77c0-7.62-1.66-13.32-5.01-17.07
			c-3.33-3.75-8.16-5.63-14.48-5.63c-7.03,0-12.63,2.18-16.8,6.52c-4.18,4.35-6.26,10.81-6.26,19.39v47.55h-27.89v-99.36h26.63
			v14.45c3.7-4.05,8.28-7.18,13.76-9.38s11.5-3.31,18.06-3.31C719.81,289.18,729.44,292.76,736.76,299.91z"/>
	</g>
	<g>
		<path class="st0" d="M821.22,380.54c-2.75,2.03-6.11,3.55-10.11,4.56c-3.99,1.01-8.19,1.52-12.6,1.52
			c-11.44,0-20.29-2.92-26.54-8.76c-6.26-5.83-9.38-14.41-9.38-25.74v-39.49h-14.84v-21.45h14.84v-23.43h27.89v23.43h23.95v21.45
			h-23.95v39.14c0,4.05,1.04,7.18,3.13,9.38c2.08,2.21,5.03,3.31,8.85,3.31c4.41,0,8.16-1.19,11.26-3.58L821.22,380.54z"/>
	</g>
	<g>
		<path class="st0" d="M938.58,383.99c-7.19-1.97-12.91-4.45-17.18-7.43l8.76-20.06c4.04,2.75,8.93,4.99,14.65,6.71
			c5.72,1.73,11.34,2.59,16.84,2.59c11.12,0,16.68-2.92,16.68-8.77c0-2.74-1.51-4.72-4.55-5.91c-3.03-1.19-7.69-2.21-13.97-3.04
			c-7.41-1.19-13.53-2.56-18.36-4.12c-4.83-1.55-9.01-4.3-12.54-8.24c-3.54-3.93-5.31-9.55-5.31-16.83c0-6.1,1.65-11.49,4.97-16.21
			c3.31-4.72,8.14-8.39,14.48-11.01s13.84-3.94,22.48-3.94c6.4,0,12.77,0.74,19.11,2.24s11.59,3.55,15.74,6.18l-8.75,19.88
			c-7.97-4.78-16.68-7.16-26.1-7.16c-5.61,0-9.82,0.84-12.63,2.5c-2.81,1.67-4.21,3.83-4.21,6.45c0,2.98,1.51,5.07,4.54,6.27
			s7.86,2.33,14.48,3.41c7.41,1.31,13.47,2.71,18.18,4.21c4.72,1.49,8.81,4.21,12.29,8.15c3.48,3.94,5.22,9.43,5.22,16.48
			c0,5.97-1.68,11.28-5.05,15.94c-3.37,4.65-8.28,8.26-14.74,10.84c-6.46,2.56-14.12,3.85-22.98,3.85
			C953.12,386.94,945.76,385.96,938.58,383.99z"/>
	</g>
	<path class="st0" d="M183,218.92l-0.02-9.84c0-2.08-0.65-4.01-1.6-5.8c1.18-2.02,2.02-4.24,2.01-6.61c0-2.37-0.82-4.56-1.98-6.55
		c1.13-1.95,1.96-4.1,1.96-6.55c0-2.46-0.84-4.62-1.98-6.58c1.14-1.96,1.97-4.12,1.97-6.59c-0.05-7.05-5.54-12.8-12.27-12.8h-1.05
		l-4.62-9.15c-4.62-6.22-7.67-7.1-8.72-7.39c-0.44-0.13-1.87-0.37-3.77-0.62V128.1h-19.96v11.75c-2.03,0.25-3.9,0.61-5.25,1.22
		c-1.43,0.41-6.32,2.26-9.69,8.83c-0.99,1.89-2.64,5.01-4.11,7.77c-6.59,0.18-11.91,5.89-11.91,12.91c0.02,2.43,0.85,4.58,1.99,6.52
		c-1.14,1.96-1.97,4.13-1.97,6.6c0.02,2.43,0.85,4.58,1.99,6.51c-1.13,1.95-1.96,4.11-1.96,6.56c0,2.48,0.85,4.67,2.02,6.63
		c-0.92,1.76-1.58,3.68-1.58,5.8l0.02,9.85c-27.19,14.74-44.44,43.49-44.4,74.64c0.03,22.64,8.88,43.9,24.91,59.9
		c16,15.95,37.25,24.74,59.84,24.74H143c22.64-0.03,43.92-8.88,59.9-24.91c15.98-16.05,24.77-37.34,24.72-59.98
		C227.59,262.31,210.23,233.61,183,218.92z"/>
	<g>
		<path class="st1" d="M114.27,188.34l56.87-0.08c2.26-0.01,4.09-2.1,4.09-4.7c-0.01-2.59-1.85-4.69-4.1-4.69l-56.87,0.09
			c-2.25,0-4.08,2.11-4.08,4.69C110.18,186.25,112.02,188.34,114.27,188.34z"/>
		<path class="st1" d="M114.25,175.23l56.87-0.09c2.26-0.01,4.1-2.13,4.09-4.7c-0.01-2.6-1.84-4.7-4.1-4.7l-6.08,0.01l-6.14-12.45
			c0,0-2.96-4.01-4.49-4.44c-1.51-0.44-19.02-2.36-24.44,0.03c0,0-2.65,0.76-4.7,4.77c-1.6,3.06-4.94,9.33-6.45,12.15l-4.57,0.01
			c-2.25,0-4.08,2.12-4.08,4.71C110.17,173.12,112,175.24,114.25,175.23z"/>
		<path class="st1" d="M114.29,201.45l56.87-0.09c2.27,0,4.1-2.1,4.09-4.7c0-2.6-1.84-4.7-4.1-4.69l-56.87,0.08
			c-2.25,0.01-4.08,2.1-4.08,4.71C110.2,199.36,112.04,201.46,114.29,201.45z"/>
		<g>
			<path class="st1" d="M123.32,284.04c-0.57,1.16-0.68,2.05-0.32,2.65c0.36,0.59,0.73,0.88,1.1,0.88c0.84,0,2-1.17,2.55-2.27
				c0.82-1.62,0.73-3.64,0.43-5.37C125.29,281.23,124.02,282.61,123.32,284.04z"/>
			<path class="st1" d="M147.75,286.31c-0.39,0.85-0.52,2.45-0.1,3.1c0.08,0.13,0.17,0.2,0.39,0.2c0.16,0,0.44-0.04,0.87-0.22
				c1.05-0.43,1.95-1.39,2.51-2.61c1.01-2.25,1.13-4.38,0.37-6.17c-0.14,0.17-0.29,0.34-0.43,0.52
				C150.02,282.77,148.62,284.47,147.75,286.31z"/>
			<path class="st1" d="M165.87,261.04c-7.72-16.57-14.4-35.05-20.4-56.44l-8.62,0.01c-5.57,20.09-11.73,37.58-18.83,53.4
				c5.66,2.62,10.07,7.54,12.53,13.97c3.9-1.6,7.89-2.17,12.14-1.76c3.56,0.34,6.56,1.2,8.95,2.52
				C153.92,270.04,159.35,264.18,165.87,261.04z"/>
			<path class="st1" d="M178.77,271.38c0.12,0.01,0.25,0.02,0.37,0.02c0.71,0,1.55-0.29,1.7-0.9c0.31-1.23-0.3-2.36-0.87-3.09
				c-1.4-1.79-4-3.13-6.06-3.13c-0.17,0-0.34,0.01-0.49,0.03c0.46,0.94,0.93,1.87,1.41,2.81C175.8,269.09,177,271.11,178.77,271.38z
				"/>
			<path class="st1" d="M105.45,269.78l0.02,0.01c0.19,0,0.77-0.24,2.1-2.41l0.11-0.17c0.83-1.64,1.66-3.33,2.52-5.12
				c-1.88,0.2-3.44,0.85-4.39,1.87c-0.83,0.89-1.2,2.06-1.1,3.49C104.81,269.05,105.23,269.66,105.45,269.78z"/>
			<path class="st1" d="M142.98,370.18c42.31-0.07,76.56-34.42,76.49-76.72c-0.04-30.85-18.32-57.39-44.61-69.49l-0.02-14.88
				c0-2.5-2.03-4.52-4.54-4.52l-19.2,0.03c5.89,20.77,12.41,38.69,19.92,54.71c4.32-0.82,8.15,0.21,11.29,3.03
				c2.19,1.96,4.29,5.36,4.03,8.54c-0.16,1.96-1.2,3.6-3,4.74c-1.29,0.81-2.65,1.23-4.03,1.23c-4.24,0.01-7.61-3.83-9.21-7.1
				c-0.61-1.21-1.22-2.43-1.82-3.66c-4.4,2.1-8.89,5.75-12.56,10.21c1.05,1.47,1.72,3.17,1.98,5.08c0.46,3.25-1.16,8.07-3.67,10.96
				c-2.71,3.11-6.16,3.66-9.25,1.42c-1.72-1.24-2.71-2.8-2.95-4.61c-0.55-4.17,3.08-8.6,5.71-11.84c0.12-0.14,0.24-0.28,0.35-0.43
				c-0.74-0.32-1.55-0.59-2.42-0.76c-4.6-0.95-8.72-0.84-11.76,0.36c-0.56,0.22-1.11,0.45-1.66,0.69c0.22,1.13,0.4,2.25,0.5,3.33
				c0.46,4.76-0.85,8.23-4.14,10.92c-1.26,1.03-2.91,1.63-4.52,1.62c-1.58,0.01-2.96-0.55-3.97-1.61c-1.79-1.87-2.59-3.98-2.38-6.29
				c0.42-4.61,4.65-8.13,6.46-9.44c0.52-0.38,1.07-0.75,1.63-1.1c-1.39-3.85-4.31-9.58-9.8-11.74c-1.12,2.37-2.26,4.71-3.41,6.98
				c-0.08,0.16-0.17,0.31-0.29,0.46c-1,1.53-3.61,4.95-6.83,4.96c-1.18,0-2.29-0.45-3.29-1.33c-3.08-2.71-3.21-7.32-1.97-10.68
				c1.55-4.19,5.67-6.7,11.01-6.71c0.56,0,1.12,0.03,1.69,0.08c6.93-15.34,12.99-32.38,18.48-51.98l-16.03,0.03
				c-2.51,0.01-4.53,2.04-4.53,4.54l0.02,14.88c-26.25,12.18-44.45,38.78-44.4,69.62C66.33,335.99,100.68,370.24,142.98,370.18z"/>
		</g>
		<rect x="141.12" y="128.1" class="st1" width="3.67" height="23.87"/>
	</g>
</g>
</svg>
